<?xml version="1.0" encoding="utf-8"?>
<!-- Generator: Adobe Illustrator 26.3.1, SVG Export Plug-In . SVG Version: 6.00 Build 0)  -->
<svg version="1.1" id="Layer_1" xmlns="http://www.w3.org/2000/svg" xmlns:xlink="http://www.w3.org/1999/xlink" x="0px" y="0px"
	 viewBox="0 0 90 90" style="enable-background:new 0 0 90 90;" xml:space="preserve">
<style type="text/css">
	.st0{fill:url(#SVGID_1_);}
	.st1{fill:url(#SVGID_00000119821752362140004700000001212316209218043299_);}
	.st2{fill:#1C4ED8;}
</style>
<g>
	<linearGradient id="SVGID_1_" gradientUnits="userSpaceOnUse" x1="12.7431" y1="12.5253" x2="52.6294" y2="52.4116">
		<stop  offset="0" style="stop-color:#6AC7FB"/>
		<stop  offset="1" style="stop-color:#3865E0"/>
	</linearGradient>
	<path class="st0" d="M53.3,23.8V1.6c0-1.4-1.2-2.6-2.6-2.6H26.7C11.5-1-0.8,11.3-0.8,26.4v24.1c0,1.4,1.2,2.6,2.6,2.6H24V23.8H53.3
		z"/>
	
		<linearGradient id="SVGID_00000155844051621661314610000014310644949562402224_" gradientUnits="userSpaceOnUse" x1="34.7339" y1="34.5161" x2="82.3294" y2="82.1116">
		<stop  offset="0" style="stop-color:#9F6AFB"/>
		<stop  offset="1" style="stop-color:#5338E0"/>
	</linearGradient>
	<path style="fill:url(#SVGID_00000155844051621661314610000014310644949562402224_);" d="M78.1,60.6V26.4c0-1.4-1.2-2.6-2.6-2.6
		H53.3v29.3H24v22.2c0,1.4,1.2,2.6,2.6,2.6h34.2l11.4,11.4c1,1,2.7,1,3.7,0l13.6-13.6c1-1,1-2.7,0-3.7L78.1,60.6z"/>
	<rect x="24" y="23.8" class="st2" width="29.3" height="29.3"/>
</g>
</svg>
